# xmcd CD database file generated by Grip 3.3.1
# 
# Track frame offsets:
#       150
#       23437
#       41317
#       49957
#       64675
#       79182
#       92732
#       112300
#       125987
#       138115
#       156100
#       176732
# 
# Disc length: 2693 seconds
# 
# Revision: 3
# Processed by: cddbd v1.5.1PL2 Copyright (c) Steve Scherf et al.
# Submitted via: Grip 3.3.1
# 
DISCID=a00a830c
DTITLE=Los Van Van - Los Van Van 1974
DYEAR=1974
DGENRE=Salsa
TTITLE0=Llegué Llegué
TTITLE1=Guararey De Pastora
TTITLE2=De Todo To Mejor
TTITLE3=Después De Todo Qué Más Da
TTITLE4=Mi Ritomo Caliente
TTITLE5=Sólo Soy Un Van Van
TTITLE6=Será Tan Grande El Amor
TTITLE7=A Ver Qué Sale
TTITLE8=Pues No Puede Ser
TTITLE9=Y No Le Conviene
TTITLE10=Hasta La Semana Que Viene
TTITLE11=Son Eternos El Origullo Y El Valor Del Pueblo Cubano
EXTD=YEAR: 1974
EXTT0=
EXTT1=
EXTT2=
EXTT3=
EXTT4=
EXTT5=
EXTT6=
EXTT7=
EXTT8=
EXTT9=
EXTT10=
EXTT11=
PLAYORDER=
